<?xml version="1.0" encoding="utf-8"?>
<!-- Generator: Adobe Illustrator 25.3.1, SVG Export Plug-In . SVG Version: 6.00 Build 0)  -->
<svg version="1.1" id="Camada_1" xmlns="http://www.w3.org/2000/svg" xmlns:xlink="http://www.w3.org/1999/xlink" x="0px" y="0px"
	 viewBox="0 0 1920 1080" style="enable-background:new 0 0 1920 1080;" xml:space="preserve">
<style type="text/css">
	.st0{fill:#FFFFFF;}
	.st1{opacity:0.5;}
</style>
<g>
	<g id="XMLID_3_">
		<g id="XMLID_4_">
			<g id="XMLID_104_">
				<path id="XMLID_167_" class="st0" d="M1823.91-294.87c-3.84,0-6.96-2.7-6.96-6.02c0-3.33,3.12-6.02,6.96-6.02
					c3.84,0,6.96,2.7,6.96,6.02C1830.87-297.56,1827.76-294.87,1823.91-294.87z"/>
				<path id="XMLID_166_" class="st0" d="M1823.91-30.77c-3.84,0-6.96-2.7-6.96-6.02c0-3.33,3.12-6.02,6.96-6.02
					c3.84,0,6.96,2.7,6.96,6.02C1830.87-33.46,1827.76-30.77,1823.91-30.77z"/>
				<path id="XMLID_165_" class="st0" d="M1823.91,233.33c-3.84,0-6.96-2.7-6.96-6.02c0-3.33,3.12-6.02,6.96-6.02
					c3.84,0,6.96,2.7,6.96,6.02C1830.87,230.64,1827.76,233.33,1823.91,233.33z"/>
				<path id="XMLID_164_" class="st0" d="M1823.91,497.44c-3.84,0-6.96-2.7-6.96-6.02c0-3.33,3.12-6.02,6.96-6.02
					c3.84,0,6.96,2.7,6.96,6.02C1830.87,494.74,1827.76,497.44,1823.91,497.44z"/>
				<path id="XMLID_163_" class="st0" d="M1823.91,761.54c-3.84,0-6.96-2.7-6.96-6.02c0-3.33,3.12-6.02,6.96-6.02
					c3.84,0,6.96,2.7,6.96,6.02C1830.87,758.84,1827.76,761.54,1823.91,761.54z"/>
				<path id="XMLID_162_" class="st0" d="M1823.91,1025.64c-3.84,0-6.96-2.7-6.96-6.02c0-3.33,3.12-6.02,6.96-6.02
					c3.84,0,6.96,2.7,6.96,6.02C1830.87,1022.94,1827.76,1025.64,1823.91,1025.64z"/>
				<path id="XMLID_161_" class="st0" d="M1823.91,1289.74c-3.84,0-6.96-2.7-6.96-6.02c0-3.33,3.12-6.02,6.96-6.02
					c3.84,0,6.96,2.7,6.96,6.02C1830.87,1287.04,1827.76,1289.74,1823.91,1289.74z"/>
				<path id="XMLID_160_" class="st0" d="M1823.91,1553.84c-3.84,0-6.96-2.7-6.96-6.02c0-3.33,3.12-6.02,6.96-6.02
					c3.84,0,6.96,2.7,6.96,6.02C1830.87,1551.14,1827.76,1553.84,1823.91,1553.84z"/>
				<path id="XMLID_159_" class="st0" d="M1823.91,1817.94c-3.84,0-6.96-2.7-6.96-6.02c0-3.33,3.12-6.02,6.96-6.02
					c3.84,0,6.96,2.7,6.96,6.02C1830.87,1815.24,1827.76,1817.94,1823.91,1817.94z"/>
				<path id="XMLID_158_" class="st0" d="M1518.87-294.87c-3.84,0-6.96-2.7-6.96-6.02c0-3.33,3.12-6.02,6.96-6.02
					c3.84,0,6.96,2.7,6.96,6.02C1525.83-297.56,1522.71-294.87,1518.87-294.87z"/>
				<path id="XMLID_157_" class="st0" d="M1518.87-30.77c-3.84,0-6.96-2.7-6.96-6.02c0-3.33,3.12-6.02,6.96-6.02
					c3.84,0,6.96,2.7,6.96,6.02C1525.83-33.46,1522.71-30.77,1518.87-30.77z"/>
				<path id="XMLID_156_" class="st0" d="M1518.87,233.33c-3.84,0-6.96-2.7-6.96-6.02c0-3.33,3.12-6.02,6.96-6.02
					c3.84,0,6.96,2.7,6.96,6.02C1525.83,230.64,1522.71,233.33,1518.87,233.33z"/>
				<path id="XMLID_155_" class="st0" d="M1518.87,497.44c-3.84,0-6.96-2.7-6.96-6.02c0-3.33,3.12-6.02,6.96-6.02
					c3.84,0,6.96,2.7,6.96,6.02C1525.83,494.74,1522.71,497.44,1518.87,497.44z"/>
				<path id="XMLID_154_" class="st0" d="M1518.87,761.54c-3.84,0-6.96-2.7-6.96-6.02c0-3.33,3.12-6.02,6.96-6.02
					c3.84,0,6.96,2.7,6.96,6.02C1525.83,758.84,1522.71,761.54,1518.87,761.54z"/>
				<path id="XMLID_153_" class="st0" d="M1518.87,1025.64c-3.84,0-6.96-2.7-6.96-6.02c0-3.33,3.12-6.02,6.96-6.02
					c3.84,0,6.96,2.7,6.96,6.02C1525.83,1022.94,1522.71,1025.64,1518.87,1025.64z"/>
				<path id="XMLID_152_" class="st0" d="M1518.87,1289.74c-3.84,0-6.96-2.7-6.96-6.02c0-3.33,3.12-6.02,6.96-6.02
					c3.84,0,6.96,2.7,6.96,6.02C1525.83,1287.04,1522.71,1289.74,1518.87,1289.74z"/>
				<path id="XMLID_151_" class="st0" d="M1518.87,1553.84c-3.84,0-6.96-2.7-6.96-6.02c0-3.33,3.12-6.02,6.96-6.02
					c3.84,0,6.96,2.7,6.96,6.02C1525.83,1551.14,1522.71,1553.84,1518.87,1553.84z"/>
				<path id="XMLID_150_" class="st0" d="M1518.87,1817.94c-3.84,0-6.96-2.7-6.96-6.02c0-3.33,3.12-6.02,6.96-6.02
					c3.84,0,6.96,2.7,6.96,6.02C1525.83,1815.24,1522.71,1817.94,1518.87,1817.94z"/>
				<path id="XMLID_149_" class="st0" d="M1213.83-294.87c-3.84,0-6.96-2.7-6.96-6.02c0-3.33,3.12-6.02,6.96-6.02
					c3.84,0,6.96,2.7,6.96,6.02C1220.78-297.56,1217.67-294.87,1213.83-294.87z"/>
				<path id="XMLID_148_" class="st0" d="M1213.83-30.77c-3.84,0-6.96-2.7-6.96-6.02c0-3.33,3.12-6.02,6.96-6.02
					c3.84,0,6.96,2.7,6.96,6.02C1220.78-33.46,1217.67-30.77,1213.83-30.77z"/>
				<path id="XMLID_147_" class="st0" d="M1213.83,233.33c-3.84,0-6.96-2.7-6.96-6.02c0-3.33,3.12-6.02,6.96-6.02
					c3.84,0,6.96,2.7,6.96,6.02C1220.78,230.64,1217.67,233.33,1213.83,233.33z"/>
				<path id="XMLID_146_" class="st0" d="M1213.83,497.44c-3.84,0-6.96-2.7-6.96-6.02c0-3.33,3.12-6.02,6.96-6.02
					c3.84,0,6.96,2.7,6.96,6.02C1220.78,494.74,1217.67,497.44,1213.83,497.44z"/>
				<path id="XMLID_145_" class="st0" d="M1213.83,761.54c-3.84,0-6.96-2.7-6.96-6.02c0-3.33,3.12-6.02,6.96-6.02
					c3.84,0,6.96,2.7,6.96,6.02C1220.78,758.84,1217.67,761.54,1213.83,761.54z"/>
				<path id="XMLID_144_" class="st0" d="M1213.83,1025.64c-3.84,0-6.96-2.7-6.96-6.02c0-3.33,3.12-6.02,6.96-6.02
					c3.84,0,6.96,2.7,6.96,6.02C1220.78,1022.94,1217.67,1025.64,1213.83,1025.64z"/>
				<path id="XMLID_143_" class="st0" d="M1213.83,1289.74c-3.84,0-6.96-2.7-6.96-6.02c0-3.33,3.12-6.02,6.96-6.02
					c3.84,0,6.96,2.7,6.96,6.02C1220.78,1287.04,1217.67,1289.74,1213.83,1289.74z"/>
				<path id="XMLID_142_" class="st0" d="M1213.83,1553.84c-3.84,0-6.96-2.7-6.96-6.02c0-3.33,3.12-6.02,6.96-6.02
					c3.84,0,6.96,2.7,6.96,6.02C1220.78,1551.14,1217.67,1553.84,1213.83,1553.84z"/>
				<path id="XMLID_141_" class="st0" d="M1213.83,1817.94c-3.84,0-6.96-2.7-6.96-6.02c0-3.33,3.12-6.02,6.96-6.02
					c3.84,0,6.96,2.7,6.96,6.02C1220.78,1815.24,1217.67,1817.94,1213.83,1817.94z"/>
				<path id="XMLID_140_" class="st0" d="M908.78-294.87c-3.84,0-6.96-2.7-6.96-6.02c0-3.33,3.12-6.02,6.96-6.02s6.96,2.7,6.96,6.02
					C915.74-297.56,912.62-294.87,908.78-294.87z"/>
				<path id="XMLID_139_" class="st0" d="M908.78-30.77c-3.84,0-6.96-2.7-6.96-6.02c0-3.33,3.12-6.02,6.96-6.02s6.96,2.7,6.96,6.02
					C915.74-33.46,912.62-30.77,908.78-30.77z"/>
				<path id="XMLID_138_" class="st0" d="M908.78,233.33c-3.84,0-6.96-2.7-6.96-6.02c0-3.33,3.12-6.02,6.96-6.02s6.96,2.7,6.96,6.02
					C915.74,230.64,912.62,233.33,908.78,233.33z"/>
				<path id="XMLID_137_" class="st0" d="M908.78,497.44c-3.84,0-6.96-2.7-6.96-6.02c0-3.33,3.12-6.02,6.96-6.02s6.96,2.7,6.96,6.02
					C915.74,494.74,912.62,497.44,908.78,497.44z"/>
				<ellipse id="XMLID_136_" class="st0" cx="908.78" cy="755.51" rx="6.96" ry="6.02"/>
				<path id="XMLID_135_" class="st0" d="M908.78,1025.64c-3.84,0-6.96-2.7-6.96-6.02c0-3.33,3.12-6.02,6.96-6.02
					s6.96,2.7,6.96,6.02C915.74,1022.94,912.62,1025.64,908.78,1025.64z"/>
				<path id="XMLID_134_" class="st0" d="M908.78,1289.74c-3.84,0-6.96-2.7-6.96-6.02c0-3.33,3.12-6.02,6.96-6.02
					s6.96,2.7,6.96,6.02C915.74,1287.04,912.62,1289.74,908.78,1289.74z"/>
				<path id="XMLID_133_" class="st0" d="M908.78,1553.84c-3.84,0-6.96-2.7-6.96-6.02c0-3.33,3.12-6.02,6.96-6.02
					s6.96,2.7,6.96,6.02C915.74,1551.14,912.62,1553.84,908.78,1553.84z"/>
				<path id="XMLID_132_" class="st0" d="M908.78,1817.94c-3.84,0-6.96-2.7-6.96-6.02c0-3.33,3.12-6.02,6.96-6.02
					s6.96,2.7,6.96,6.02C915.74,1815.24,912.62,1817.94,908.78,1817.94z"/>
				<path id="XMLID_131_" class="st0" d="M603.74-294.87c-3.84,0-6.96-2.7-6.96-6.02c0-3.33,3.12-6.02,6.96-6.02
					c3.84,0,6.96,2.7,6.96,6.02C610.69-297.56,607.58-294.87,603.74-294.87z"/>
				<path id="XMLID_130_" class="st0" d="M603.74-30.77c-3.84,0-6.96-2.7-6.96-6.02c0-3.33,3.12-6.02,6.96-6.02
					c3.84,0,6.96,2.7,6.96,6.02C610.69-33.46,607.58-30.77,603.74-30.77z"/>
				<path id="XMLID_129_" class="st0" d="M603.74,233.33c-3.84,0-6.96-2.7-6.96-6.02c0-3.33,3.12-6.02,6.96-6.02
					c3.84,0,6.96,2.7,6.96,6.02C610.69,230.64,607.58,233.33,603.74,233.33z"/>
				<path id="XMLID_128_" class="st0" d="M603.74,497.44c-3.84,0-6.96-2.7-6.96-6.02c0-3.33,3.12-6.02,6.96-6.02
					c3.84,0,6.96,2.7,6.96,6.02C610.69,494.74,607.58,497.44,603.74,497.44z"/>
				<path id="XMLID_127_" class="st0" d="M603.74,761.54c-3.84,0-6.96-2.7-6.96-6.02c0-3.33,3.12-6.02,6.96-6.02
					c3.84,0,6.96,2.7,6.96,6.02C610.69,758.84,607.58,761.54,603.74,761.54z"/>
				<path id="XMLID_126_" class="st0" d="M603.74,1025.64c-3.84,0-6.96-2.7-6.96-6.02c0-3.33,3.12-6.02,6.96-6.02
					c3.84,0,6.96,2.7,6.96,6.02C610.69,1022.94,607.58,1025.64,603.74,1025.64z"/>
				<path id="XMLID_125_" class="st0" d="M603.74,1289.74c-3.84,0-6.96-2.7-6.96-6.02c0-3.33,3.12-6.02,6.96-6.02
					c3.84,0,6.96,2.7,6.96,6.02C610.69,1287.04,607.58,1289.74,603.74,1289.74z"/>
				<path id="XMLID_124_" class="st0" d="M603.74,1553.84c-3.84,0-6.96-2.7-6.96-6.02c0-3.33,3.12-6.02,6.96-6.02
					c3.84,0,6.96,2.7,6.96,6.02C610.69,1551.14,607.58,1553.84,603.74,1553.84z"/>
				<path id="XMLID_123_" class="st0" d="M603.74,1817.94c-3.84,0-6.96-2.7-6.96-6.02c0-3.33,3.12-6.02,6.96-6.02
					c3.84,0,6.96,2.7,6.96,6.02C610.69,1815.24,607.58,1817.94,603.74,1817.94z"/>
				<path id="XMLID_122_" class="st0" d="M298.69-294.87c-3.84,0-6.96-2.7-6.96-6.02c0-3.33,3.12-6.02,6.96-6.02
					c3.84,0,6.96,2.7,6.96,6.02C305.65-297.56,302.53-294.87,298.69-294.87z"/>
				<path id="XMLID_121_" class="st0" d="M298.69-30.77c-3.84,0-6.96-2.7-6.96-6.02c0-3.33,3.12-6.02,6.96-6.02
					c3.84,0,6.96,2.7,6.96,6.02C305.65-33.46,302.53-30.77,298.69-30.77z"/>
				<path id="XMLID_120_" class="st0" d="M298.69,233.33c-3.84,0-6.96-2.7-6.96-6.02c0-3.33,3.12-6.02,6.96-6.02
					c3.84,0,6.96,2.7,6.96,6.02C305.65,230.64,302.53,233.33,298.69,233.33z"/>
				<path id="XMLID_119_" class="st0" d="M298.69,497.44c-3.84,0-6.96-2.7-6.96-6.02c0-3.33,3.12-6.02,6.96-6.02
					c3.84,0,6.96,2.7,6.96,6.02C305.65,494.74,302.53,497.44,298.69,497.44z"/>
				<path id="XMLID_118_" class="st0" d="M298.69,761.54c-3.84,0-6.96-2.7-6.96-6.02c0-3.33,3.12-6.02,6.96-6.02
					c3.84,0,6.96,2.7,6.96,6.02C305.65,758.84,302.53,761.54,298.69,761.54z"/>
				<path id="XMLID_117_" class="st0" d="M298.69,1025.64c-3.84,0-6.96-2.7-6.96-6.02c0-3.33,3.12-6.02,6.96-6.02
					c3.84,0,6.96,2.7,6.96,6.02C305.65,1022.94,302.53,1025.64,298.69,1025.64z"/>
				<path id="XMLID_116_" class="st0" d="M298.69,1289.74c-3.84,0-6.96-2.7-6.96-6.02c0-3.33,3.12-6.02,6.96-6.02
					c3.84,0,6.96,2.7,6.96,6.02C305.65,1287.04,302.53,1289.74,298.69,1289.74z"/>
				<path id="XMLID_115_" class="st0" d="M298.69,1553.84c-3.84,0-6.96-2.7-6.96-6.02c0-3.33,3.12-6.02,6.96-6.02
					c3.84,0,6.96,2.7,6.96,6.02C305.65,1551.14,302.53,1553.84,298.69,1553.84z"/>
				<path id="XMLID_114_" class="st0" d="M298.69,1817.94c-3.84,0-6.96-2.7-6.96-6.02c0-3.33,3.12-6.02,6.96-6.02
					c3.84,0,6.96,2.7,6.96,6.02C305.65,1815.24,302.53,1817.94,298.69,1817.94z"/>
				<path id="XMLID_113_" class="st0" d="M-6.35-294.87c-3.84,0-6.96-2.7-6.96-6.02c0-3.33,3.12-6.02,6.96-6.02
					c3.84,0,6.96,2.7,6.96,6.02C0.61-297.56-2.51-294.87-6.35-294.87z"/>
				<path id="XMLID_112_" class="st0" d="M-6.35-30.77c-3.84,0-6.96-2.7-6.96-6.02c0-3.33,3.12-6.02,6.96-6.02
					c3.84,0,6.96,2.7,6.96,6.02C0.61-33.46-2.51-30.77-6.35-30.77z"/>
				<path id="XMLID_111_" class="st0" d="M-6.35,233.33c-3.84,0-6.96-2.7-6.96-6.02c0-3.33,3.12-6.02,6.96-6.02
					c3.84,0,6.96,2.7,6.96,6.02C0.61,230.64-2.51,233.33-6.35,233.33z"/>
				<path id="XMLID_110_" class="st0" d="M-6.35,497.44c-3.84,0-6.96-2.7-6.96-6.02c0-3.33,3.12-6.02,6.96-6.02
					c3.84,0,6.96,2.7,6.96,6.02C0.61,494.74-2.51,497.44-6.35,497.44z"/>
				<path id="XMLID_109_" class="st0" d="M-6.35,761.54c-3.84,0-6.96-2.7-6.96-6.02c0-3.33,3.12-6.02,6.96-6.02
					c3.84,0,6.96,2.7,6.96,6.02C0.61,758.84-2.51,761.54-6.35,761.54z"/>
				<path id="XMLID_108_" class="st0" d="M-6.35,1025.64c-3.84,0-6.96-2.7-6.96-6.02c0-3.33,3.12-6.02,6.96-6.02
					c3.84,0,6.96,2.7,6.96,6.02C0.61,1022.94-2.51,1025.64-6.35,1025.64z"/>
				<path id="XMLID_107_" class="st0" d="M-6.35,1289.74c-3.84,0-6.96-2.7-6.96-6.02c0-3.33,3.12-6.02,6.96-6.02
					c3.84,0,6.96,2.7,6.96,6.02C0.61,1287.04-2.51,1289.74-6.35,1289.74z"/>
				<path id="XMLID_106_" class="st0" d="M-6.35,1553.84c-3.84,0-6.96-2.7-6.96-6.02c0-3.33,3.12-6.02,6.96-6.02
					c3.84,0,6.96,2.7,6.96,6.02C0.61,1551.14-2.51,1553.84-6.35,1553.84z"/>
				<path id="XMLID_105_" class="st0" d="M-6.35,1817.94c-3.84,0-6.96-2.7-6.96-6.02c0-3.33,3.12-6.02,6.96-6.02
					c3.84,0,6.96,2.7,6.96,6.02C0.61,1815.24-2.51,1817.94-6.35,1817.94z"/>
			</g>
			<g id="XMLID_93_">
				<g id="XMLID_102_">
					<path id="XMLID_103_" class="st0" d="M1907.96,875.19l0.56-2.35c-0.98-0.31-99.47-32.27-191.13-97.85
						c-84.42-60.4-180.15-162.51-156.86-305.96c28.07-172.83-84.05-252.4-192.48-329.35c-67.66-48.01-131.56-93.36-159.42-159.12
						c-32.98-77.85-24.72-173.1,21.53-248.58c63.84-104.16,182.51-151.75,325.58-130.62c136.05,20.1,229.41-29.93,283.77-75.44
						c58.93-49.33,86.04-104.18,86.3-104.72l-1.82-1.2c-0.27,0.54-27.2,55-85.79,104.01c-54.05,45.22-146.91,94.94-282.2,74.93
						c-75.88-11.21-144.17-3.59-203,22.65c-52.01,23.2-95.08,60.88-124.55,108.97c-46.71,76.21-55.03,172.41-21.71,251.07
						c28.12,66.4,92.28,111.92,160.2,160.12c107.82,76.52,219.32,155.64,191.51,326.82c-10.39,63.98,1.57,125.2,35.54,181.95
						c27.13,45.32,68.28,87.9,122.31,126.55C1808.24,842.84,1906.98,874.87,1907.96,875.19z"/>
				</g>
				<g id="XMLID_100_">
					<path id="XMLID_101_" class="st0" d="M1851.58,736.85l0.72-2.28c-84.71-36.37-135.97-86.84-156.7-154.32
						c-18.34-59.71-11.33-125.3-4.54-188.73c4.7-43.89,9.13-85.34,5.55-124.23c-11.07-120.22-117.34-179.12-211.1-231.08
						c-66.61-36.92-129.53-71.79-151.78-123.59c-11.63-27.06-13.06-74.3,11.27-114.08c24.46-39.99,80.92-83.52,211.07-63.72
						c221.09,33.62,446.18-59.78,448.43-60.72l-0.71-2.28c-2.24,0.95-226.88,94.12-447.45,60.6
						c-131.17-19.93-188.25,24.19-213.04,64.72c-24.83,40.6-23.33,88.89-11.44,116.58c22.57,52.55,85.81,87.59,152.75,124.69
						c93.27,51.69,198.98,110.28,209.92,229.15c3.56,38.61-0.87,79.93-5.55,123.67c-6.81,63.71-13.86,129.6,4.65,189.85
						C1714.59,649.26,1766.25,700.22,1851.58,736.85z"/>
				</g>
				<g id="XMLID_98_">
					<path id="XMLID_99_" class="st0" d="M1874.26,616.74c15.68,0,32.66-2.81,50.92-8.45l-0.53-2.35
						c-61.76,19.07-108.63,5.47-139.32-40.41c-52.16-77.97-41.48-231.76-15.87-285.39c70.64-147.97,42.4-196.25,3.32-263.07
						c-19.23-32.87-41.02-70.13-56.25-126.11c-8.43-30.99-5.8-56.33,7.83-75.33c42.42-59.16,178.21-39.76,179.58-39.56l0.27-2.41
						c-1.38-0.2-138.29-19.77-181.45,40.41c-14.11,19.68-16.88,45.8-8.22,77.63c15.33,56.32,37.21,93.73,56.52,126.75
						c40.1,68.56,66.59,113.86-3.42,260.52c-25.84,54.13-36.61,209.35,16.05,288.07C1805.83,600.12,1836.18,616.74,1874.26,616.74z"
						/>
				</g>
				<g id="XMLID_94_">
					<path id="XMLID_95_" class="st0" d="M1515.23-49.23c57.48,0,104.25-29.93,104.25-66.73c0-36.8-46.77-66.73-104.25-66.73
						c-57.48,0-104.25,29.93-104.25,66.73C1410.98-79.16,1457.74-49.23,1515.23-49.23z M1515.23-180.26
						c56.33,0,102.16,28.84,102.16,64.3c0,35.45-45.83,64.3-102.16,64.3c-56.33,0-102.16-28.84-102.16-64.3
						C1413.07-151.41,1458.9-180.26,1515.23-180.26z"/>
				</g>
			</g>
			<g id="XMLID_84_">
				<g id="XMLID_91_">
					<path id="XMLID_92_" class="st0" d="M1117.47,1800.8l2.07-0.31c-8.6-78.6-76.52-109.56-189.03-160.86
						c-34.64-15.79-73.9-33.69-117.32-55.57c-151.59-76.38-184.98-216.21-240.31-447.86c-12.3-51.53-26.25-109.93-42.72-172.54
						c-28.59-108.7-74.8-195.44-137.34-257.82c-50.04-49.91-110.58-84.4-179.93-102.53C94.86,572.48-9.22,600.21-10.26,600.5
						l0.48,2.37c1.03-0.28,104.72-27.89,222.29,2.85c108.42,28.35,251.2,113.6,315.66,358.66c16.46,62.58,30.41,120.96,42.71,172.47
						c55.49,232.35,88.99,372.6,241.49,449.45c43.45,21.89,82.73,39.8,117.39,55.61C1045.35,1694.6,1109.03,1723.63,1117.47,1800.8z
						"/>
				</g>
				<g id="XMLID_89_">
					<path id="XMLID_90_" class="st0" d="M630.34,1801.1c0.27-0.79,27.32-80.36,18.67-179.08c-5.09-58.01-21.31-111.19-48.23-158.08
						c-33.63-58.58-84.13-107.41-150.09-145.14c-108.72-62.18-127.66-206.3-145.98-345.68c-14.25-108.44-27.71-210.86-83.44-264.01
						c-21.15-20.17-45.33-28.44-71.85-24.58C68.3,696.36-10.08,818.74-10.86,819.98l1.68,1.44c0.78-1.23,78.63-122.78,158.86-134.47
						c25.94-3.76,49.57,4.32,70.26,24.04c55.11,52.56,68.51,154.53,82.7,262.49c18.4,139.99,37.42,284.75,147.12,347.5
						c148.58,84.98,189.23,210.74,197.17,301.28c8.6,98.13-18.25,177.14-18.53,177.93L630.34,1801.1z"/>
				</g>
				<g id="XMLID_87_">
					<path id="XMLID_88_" class="st0" d="M542.79,1886l2.09-0.04c-0.01-0.61-1.16-62.22-29.54-142.59
						c-26.18-74.15-81.55-179.93-196.67-262.83c-123.42-88.87-151.3-213.91-173.71-314.37c-18.16-81.42-32.51-145.74-89.79-164.58
						c-66.46-21.86-132.8,17.28-176.74,53.97c-47.52,39.67-79.8,85.09-80.12,85.54l1.62,1.54c0.32-0.45,32.46-45.66,79.76-85.14
						c43.56-36.36,109.26-75.16,174.91-53.57c56.14,18.46,70.35,82.18,88.34,162.85c22.5,100.89,50.5,226.44,174.64,315.83
						c114.6,82.53,169.73,187.8,195.8,261.58C541.62,1824.15,542.78,1885.39,542.79,1886z"/>
				</g>
				<g id="XMLID_85_">
					<path id="XMLID_86_" class="st0" d="M388.43,1798.82c0.04-0.5,4-51.04-12.92-104.07c-15.64-49.02-52.77-110.27-140.88-123.72
						c-87.98-13.43-168.96,40.02-221.43,87.23c-56.79,51.09-93.3,106.07-93.66,106.61l1.66,1.48c0.36-0.55,36.74-55.32,93.32-106.21
						c52.15-46.9,132.6-100.03,219.84-86.7c87.08,13.29,123.76,73.76,139.2,122.15c16.75,52.51,12.84,102.49,12.79,102.99
						L388.43,1798.82z"/>
				</g>
			</g>
			<g id="XMLID_72_">
				<path id="XMLID_76_" class="st0" d="M856.01,917.14c0.04,0.74,0.04,1.51,0.04,2.28c0,0.74,0,1.47-0.02,2.19
					c-0.02,0.67-0.04,1.34-0.06,2.01v-8.05C855.99,916.1,856.01,916.62,856.01,917.14z"/>
				<path id="XMLID_75_" class="st0" d="M856.01,939.56c0.04,0.75,0.04,1.51,0.04,2.28c0,0.74,0,1.46-0.02,2.19
					c-0.02,0.67-0.04,1.34-0.06,2.01V938C855.99,938.52,856.01,939.04,856.01,939.56z"/>
				<path id="XMLID_74_" class="st0" d="M855.97,960.44c0.06,1.24,0.09,2.53,0.09,3.85c0,0.74,0,1.47-0.02,2.19
					c-0.02,0.67-0.04,1.34-0.06,2.01V960.44z"/>
				<path id="XMLID_73_" class="st0" d="M856.03,899.16c-0.02,0.67-0.04,1.34-0.06,2.01v-8.05c0.02,0.52,0.04,1.04,0.04,1.56
					c0.04,0.74,0.04,1.51,0.04,2.28C856.05,897.72,856.05,898.44,856.03,899.16z"/>
			</g>
			<g id="XMLID_5_" class="st1">
				<g id="XMLID_6_">
					<g id="XMLID_37_">
						<path id="XMLID_38_" class="st0" d="M230.38,1078.05c0,23.62-16.45,42.76-36.74,42.76c-20.29,0-36.74-19.14-36.74-42.76
							c0-23.61,16.45-42.76,36.74-42.76C213.94,1035.29,230.38,1054.44,230.38,1078.05z"/>
					</g>
					<g id="XMLID_35_">
						<path id="XMLID_36_" class="st0" d="M1568.19,54.16c0,23.61-16.45,42.76-36.74,42.76c-20.29,0-36.74-19.14-36.74-42.76
							c0-23.62,16.45-42.76,36.74-42.76C1551.74,11.4,1568.19,30.55,1568.19,54.16z"/>
					</g>
					<g id="XMLID_33_">
						<path id="XMLID_34_" class="st0" d="M347.52,309.91c0,16.4-11.43,29.7-25.52,29.7c-14.1,0-25.52-13.3-25.52-29.7
							c0-16.4,11.43-29.7,25.52-29.7C336.09,280.21,347.52,293.5,347.52,309.91z"/>
					</g>
					<g id="XMLID_31_">
						<ellipse id="XMLID_32_" class="st0" cx="1348.04" cy="1335.96" rx="22.85" ry="26.59"/>
					</g>
					<g id="XMLID_29_">
						<ellipse id="XMLID_30_" class="st0" cx="2004.5" cy="1326.04" rx="22.85" ry="26.59"/>
					</g>
					<g id="XMLID_27_">
						<ellipse id="XMLID_28_" class="st0" cx="1233.78" cy="-89.78" rx="22.85" ry="26.59"/>
					</g>
					<g id="XMLID_23_">
						<path id="XMLID_24_" class="st0" d="M229.13,991.71c-40.58,0-73.6-38.42-73.6-85.65c0-47.23,33.02-85.65,73.6-85.65
							s73.6,38.42,73.6,85.65C302.73,953.29,269.71,991.71,229.13,991.71z M229.13,823.81c-38.97,0-70.67,36.9-70.67,82.25
							c0,45.35,31.7,82.25,70.67,82.25s70.67-36.9,70.67-82.25C299.8,860.7,268.1,823.81,229.13,823.81z"/>
					</g>
					<g id="XMLID_19_">
						<path id="XMLID_20_" class="st0" d="M-169.4,268.23c-40.58,0-73.6-38.42-73.6-85.65s33.02-85.65,73.6-85.65
							s73.6,38.42,73.6,85.65S-128.82,268.23-169.4,268.23z M-169.4,100.33c-38.97,0-70.67,36.9-70.67,82.25s31.7,82.25,70.67,82.25
							s70.67-36.9,70.67-82.25S-130.43,100.33-169.4,100.33z"/>
					</g>
					<g id="XMLID_15_">
						<path id="XMLID_16_" class="st0" d="M1485.82,950.96c-27.93,0-50.66-26.45-50.66-58.96c0-32.51,22.72-58.96,50.66-58.96
							c27.93,0,50.66,26.45,50.66,58.96C1536.48,924.51,1513.76,950.96,1485.82,950.96z M1485.82,835.39
							c-26.82,0-48.64,25.4-48.64,56.61s21.82,56.61,48.64,56.61c26.82,0,48.65-25.4,48.65-56.61S1512.65,835.39,1485.82,835.39z"/>
					</g>
					<g id="XMLID_11_">
						<path id="XMLID_12_" class="st0" d="M224.97,1569.79c-27.93,0-50.66-26.45-50.66-58.96c0-32.51,22.73-58.96,50.66-58.96
							s50.66,26.45,50.66,58.96C275.63,1543.34,252.9,1569.79,224.97,1569.79z M224.97,1454.22c-26.82,0-48.64,25.4-48.64,56.61
							s21.82,56.61,48.64,56.61s48.64-25.4,48.64-56.61S251.79,1454.22,224.97,1454.22z"/>
					</g>
					<g id="XMLID_7_">
						<path id="XMLID_8_" class="st0" d="M1660.6,553.27c-51.12,0-92.71-48.4-92.71-107.9c0-59.5,41.59-107.9,92.71-107.9
							c51.12,0,92.72,48.4,92.72,107.9C1753.31,504.86,1711.72,553.27,1660.6,553.27z M1660.6,341.75
							c-49.09,0-89.03,46.48-89.03,103.61s39.94,103.61,89.03,103.61c49.09,0,89.03-46.48,89.03-103.61
							S1709.69,341.75,1660.6,341.75z"/>
					</g>
				</g>
			</g>
		</g>
	</g>
</g>
</svg>
