<?xml version="1.0" encoding="utf-8"?>
<!-- Generator: Adobe Illustrator 25.3.1, SVG Export Plug-In . SVG Version: 6.00 Build 0)  -->
<svg version="1.1" id="Camada_1" xmlns="http://www.w3.org/2000/svg" xmlns:xlink="http://www.w3.org/1999/xlink" x="0px" y="0px"
	 viewBox="0 0 600 600" style="enable-background:new 0 0 600 600;" xml:space="preserve">
<style type="text/css">
	.st0{fill:#8257E6;}
	.st1{fill:#FFFFFF;}
</style>
<rect x="276.45" y="275.99" class="st0" width="48" height="48"/>
<g>
	<path class="st1" d="M297.06,299.85l-2.72,2.72c0.23,0.28,0.34,0.61,0.34,1v0.06c0,1.15-0.95,1.8-2.61,1.8h-0.59l-4.38,4.38h5.59
		c4.68,0,7.43-2.05,7.43-5.41v-0.06C300.12,301.99,298.96,300.67,297.06,299.85z M287.86,301.81h3.03l8.15-8.15
		c-0.21-0.68-0.57-1.25-1.05-1.72c-1.15-1.15-2.89-1.77-5.36-1.77h-10.07v19.64h0.33l4.97-4.97V301.81z M287.86,294.54h3.54
		c1.63,0,2.47,0.62,2.47,1.68v0.06c0,1.15-0.93,1.71-2.58,1.71h-3.42V294.54z"/>
	<path class="st1" d="M318.34,294.94v-4.77h-11.59l-4.12,4.12v15.52h5.44v-7.01h9.29v-4.52h-9.29v-3.34H318.34z"/>
</g>
</svg>
