<?xml version="1.0" encoding="utf-8"?>
<!-- Generator: Adobe Illustrator 25.3.1, SVG Export Plug-In . SVG Version: 6.00 Build 0)  -->
<svg version="1.1" id="Camada_1" xmlns="http://www.w3.org/2000/svg" xmlns:xlink="http://www.w3.org/1999/xlink" x="0px" y="0px"
	 viewBox="0 0 1920 1080" style="enable-background:new 0 0 1920 1080;" xml:space="preserve">
<style type="text/css">
	.st0{opacity:0.19;fill:#E3907C;}
	.st1{fill:url(#XMLID_2_);}
	.st2{fill:#FFFFFF;}
	.st3{fill-rule:evenodd;clip-rule:evenodd;fill:#ECC02E;}
	.st4{fill:#132136;}
	.st5{fill:#ECC02E;}
	.st6{fill-rule:evenodd;clip-rule:evenodd;fill:#FFFFFF;}
</style>
<g>
	<g id="XMLID_77_">
		<polygon id="XMLID_83_" class="st0" points="564.04,630.52 1211.36,265.27 1301.89,768.69 		"/>
		<polygon id="XMLID_82_" points="603.28,313.76 1115.31,838.35 1360.39,384.98 		"/>
		<g id="XMLID_78_">
			<linearGradient id="XMLID_2_" gradientUnits="userSpaceOnUse" x1="650.012" y1="542.0332" x2="1386.7756" y2="542.0332">
				<stop  offset="0" style="stop-color:#FDBB29"/>
				<stop  offset="1" style="stop-color:#F6912C"/>
			</linearGradient>
			<path id="XMLID_79_" class="st1" d="M1031.86,819.63l-0.89-1.29l-380.96-553.9l736.76,193.52l-1.56,1.59L1031.86,819.63z
				 M656.09,268.71l376.12,546.87l349.6-356.25L656.09,268.71z"/>
		</g>
	</g>
	<g id="XMLID_21895_">
		<g id="XMLID_34750_">
			<g id="XMLID_34767_">
				<path id="XMLID_35390_" class="st2" d="M819.79,416.57c3.68,4.77,5.52,10.5,5.52,17.22c0,9.96-4.12,17.68-12.34,23.15
					c-8.23,5.47-20.14,8.2-35.73,8.2h-64v-113.7h60.75c15.16,0,26.61,2.71,34.35,8.12c7.74,5.42,11.61,12.62,11.61,21.6
					c0,5.31-1.33,10.07-3.98,14.29c-2.65,4.22-6.58,7.63-11.78,10.23C810.91,408.18,816.11,411.8,819.79,416.57z M750.93,378.24
					v16.89h17.87c8.34,0,12.51-2.82,12.51-8.45c0-5.63-4.17-8.45-12.51-8.45H750.93z M786.66,429.4c0-5.95-4.22-8.93-12.67-8.93
					h-23.06v17.87h23.06C782.44,438.33,786.66,435.36,786.66,429.4z"/>
				<path id="XMLID_35394_" class="st2" d="M859.26,351.44h38.33v83.97h51.33v29.72h-89.66V351.44z"/>
				<path id="XMLID_35396_" class="st2" d="M1059.04,445.32h-43.21l-7.63,19.82h-38.98l49.7-113.7h37.68l49.7,113.7h-39.63
					L1059.04,445.32z M1048.48,417.71l-11.04-28.59l-11.04,28.59H1048.48z"/>
				<path id="XMLID_35399_" class="st2" d="M1157.63,460.18c-9.64-5.04-17.19-12.07-22.66-21.12c-5.47-9.04-8.2-19.3-8.2-30.78
					c0-11.48,2.73-21.74,8.2-30.78c5.47-9.04,13.02-16.08,22.66-21.12c9.64-5.04,20.47-7.55,32.48-7.55
					c11.04,0,20.9,1.95,29.56,5.85c8.66,3.9,15.81,9.53,21.44,16.89l-24.2,21.6c-7.04-8.88-15.32-13.32-24.85-13.32
					c-8.01,0-14.46,2.57-19.33,7.72c-4.87,5.14-7.31,12.05-7.31,20.71c0,8.66,2.44,15.57,7.31,20.71
					c4.87,5.14,11.31,7.71,19.33,7.71c9.53,0,17.81-4.44,24.85-13.32l24.2,21.6c-5.63,7.37-12.78,12.99-21.44,16.89
					c-8.66,3.9-18.52,5.85-29.56,5.85C1178.1,467.73,1167.27,465.21,1157.63,460.18z"/>
				<path id="XMLID_35401_" class="st2" d="M1318.92,427.45l-8.61,9.58v28.1h-37.68v-113.7h37.68v41.26l37.36-41.26h41.74
					l-45.48,50.03l47.75,63.67h-44.34L1318.92,427.45z"/>
			</g>
			<g id="XMLID_34766_">
				<path id="XMLID_35375_" class="st2" d="M754.21,532.92v22.6h50.05v33.53h-50.05v42.19h-40.45V499.39h97.53v33.53H754.21z"/>
				<path id="XMLID_35377_" class="st2" d="M875.57,598.09H864.6v33.15h-40.45V499.39h57.77c11.08,0,20.74,2.01,28.97,6.03
					c8.23,4.02,14.57,9.79,19.03,17.33c4.46,7.53,6.69,16.33,6.69,26.37c0,9.42-1.94,17.64-5.83,24.68
					c-3.89,7.03-9.49,12.62-16.8,16.76l25.2,40.69h-43.2L875.57,598.09z M891.68,537.72c-2.74-2.7-6.86-4.05-12.34-4.05H864.6v30.89
					h14.74c5.49,0,9.6-1.35,12.34-4.05c2.74-2.7,4.11-6.5,4.11-11.4C895.79,544.22,894.42,540.42,891.68,537.72z"/>
				<path id="XMLID_35380_" class="st2" d="M951.84,499.39h40.45v131.85h-40.45V499.39z"/>
				<path id="XMLID_35382_" class="st2" d="M1011.83,499.39h59.14c13.37,0,25.17,2.67,35.4,8c10.23,5.34,18.17,12.97,23.83,22.89
					c5.66,9.92,8.48,21.6,8.48,35.04c0,13.44-2.83,25.12-8.48,35.04c-5.66,9.92-13.6,17.55-23.83,22.89
					c-10.23,5.34-22.03,8.01-35.4,8.01h-59.14V499.39z M1069.26,596.58c8.68,0,15.62-2.73,20.83-8.19c5.2-5.46,7.8-13.15,7.8-23.07
					c0-9.92-2.6-17.61-7.8-23.07c-5.2-5.46-12.14-8.19-20.83-8.19h-16.97v62.54H1069.26z"/>
				<path id="XMLID_35385_" class="st2" d="M1233.47,608.26h-45.6l-8.06,22.98h-41.14l52.45-131.85h39.77l52.45,131.85h-41.82
					L1233.47,608.26z M1222.33,576.24l-11.66-33.15l-11.66,33.15H1222.33z"/>
				<path id="XMLID_35388_" class="st2" d="M1353.45,583.4v47.84H1313v-48.41l-45.25-83.44h42.68l24.51,45.58l24.68-45.58h39.08
					L1353.45,583.4z"/>
			</g>
		</g>
		<g id="XMLID_34748_">
			<path id="XMLID_22201_" class="st3" d="M861,677.55h347.4c3.58,0,6.5,2.92,6.5,6.5v28.61c0,3.58-2.92,6.5-6.5,6.5H861
				c-3.57,0-6.5-2.93-6.5-6.5v-28.61C854.5,680.47,857.42,677.55,861,677.55z"/>
		</g>
		<g id="XMLID_34746_">
			<path id="XMLID_35348_" class="st4" d="M899.6,689.3v12.6c0,1.44-0.32,2.7-0.97,3.78c-0.64,1.08-1.57,1.91-2.79,2.49
				c-1.22,0.58-2.66,0.87-4.32,0.87c-2.5,0-4.45-0.64-5.83-1.92c-1.39-1.28-2.08-3.04-2.08-5.27V689.3h4.12v11.92
				c0,1.5,0.3,2.6,0.91,3.3c0.6,0.7,1.6,1.05,3,1.05c1.35,0,2.33-0.35,2.94-1.06c0.61-0.71,0.91-1.81,0.91-3.32v-11.9H899.6z"/>
			<path id="XMLID_35350_" class="st4" d="M928.45,695.38c0,2.1-0.65,3.7-1.96,4.81c-1.31,1.11-3.17,1.67-5.59,1.67h-1.77v6.93H915
				V689.3h6.22c2.36,0,4.16,0.51,5.39,1.53C927.84,691.85,928.45,693.36,928.45,695.38z M919.13,698.47h1.36
				c1.27,0,2.22-0.25,2.85-0.75c0.63-0.5,0.95-1.23,0.95-2.19c0-0.97-0.26-1.68-0.79-2.14c-0.53-0.46-1.36-0.69-2.48-0.69h-1.88
				V698.47z"/>
			<path id="XMLID_35353_" class="st4" d="M960.9,708.78h-4.13v-16.04h-5.29v-3.44h14.71v3.44h-5.29V708.78z"/>
			<path id="XMLID_35355_" class="st4" d="M997.49,699.02c0,3.22-0.8,5.7-2.4,7.43c-1.6,1.73-3.89,2.6-6.87,2.6s-5.27-0.87-6.87-2.6
				c-1.6-1.73-2.4-4.22-2.4-7.46c0-3.24,0.8-5.72,2.4-7.43c1.6-1.71,3.9-2.56,6.89-2.56c2.99,0,5.28,0.86,6.87,2.58
				C996.7,693.31,997.49,695.78,997.49,699.02z M983.28,699.02c0,2.18,0.41,3.81,1.24,4.91c0.83,1.1,2.06,1.65,3.7,1.65
				c3.29,0,4.94-2.19,4.94-6.57c0-4.39-1.64-6.58-4.92-6.58c-1.64,0-2.88,0.55-3.72,1.66C983.7,695.2,983.28,696.84,983.28,699.02z"
				/>
			<path id="XMLID_35358_" class="st4" d="M1023.36,708.78l7.31-15.98h-9.6v-3.46h13.97v2.58l-7.37,16.86H1023.36z"/>
			<path id="XMLID_35360_" class="st4" d="M1054.72,696.34c1.88,0,3.38,0.53,4.5,1.58c1.11,1.06,1.67,2.5,1.67,4.34
				c0,2.18-0.67,3.85-2.01,5.02c-1.34,1.17-3.26,1.76-5.75,1.76c-2.17,0-3.92-0.35-5.25-1.05v-3.56c0.7,0.37,1.52,0.68,2.45,0.91
				c0.93,0.24,1.82,0.35,2.65,0.35c2.51,0,3.77-1.03,3.77-3.09c0-1.96-1.3-2.94-3.9-2.94c-0.47,0-0.99,0.05-1.56,0.14
				c-0.57,0.09-1.03,0.19-1.39,0.3l-1.64-0.88l0.73-9.92h10.56v3.49h-6.95l-0.36,3.82l0.47-0.09
				C1053.25,696.4,1053.92,696.34,1054.72,696.34z"/>
			<path id="XMLID_35362_" class="st4" d="M1082.84,695.11c0,2.04-0.4,3.58-1.19,4.6c-0.79,1.03-1.95,1.54-3.48,1.54
				c-1.47,0-2.6-0.53-3.4-1.58c-0.8-1.05-1.2-2.57-1.2-4.56c0-4.06,1.53-6.09,4.6-6.09c1.5,0,2.65,0.53,3.46,1.58
				C1082.44,691.66,1082.84,693.16,1082.84,695.11z M1076.94,695.14c0,1.13,0.1,1.97,0.3,2.52c0.2,0.56,0.52,0.83,0.97,0.83
				c0.85,0,1.28-1.12,1.28-3.36c0-2.22-0.43-3.33-1.28-3.33c-0.44,0-0.77,0.27-0.97,0.82S1076.94,694.01,1076.94,695.14z
				 M1092,689.3l-10.8,19.47h-3.2l10.8-19.47H1092z M1096.48,702.89c0,2.03-0.4,3.56-1.19,4.59s-1.95,1.54-3.48,1.54
				c-1.47,0-2.6-0.53-3.4-1.58c-0.8-1.05-1.2-2.57-1.2-4.55c0-4.06,1.53-6.09,4.6-6.09c1.5,0,2.65,0.53,3.46,1.58
				C1096.08,699.43,1096.48,700.94,1096.48,702.89z M1090.58,702.92c0,1.13,0.1,1.97,0.3,2.52s0.52,0.83,0.97,0.83
				c0.85,0,1.28-1.12,1.28-3.36c0-2.22-0.43-3.33-1.28-3.33c-0.44,0-0.77,0.27-0.97,0.82S1090.58,701.79,1090.58,702.92z"/>
			<path id="XMLID_35368_" class="st4" d="M1138.7,699.02c0,3.22-0.8,5.7-2.4,7.43c-1.6,1.73-3.89,2.6-6.87,2.6s-5.27-0.87-6.87-2.6
				c-1.6-1.73-2.4-4.22-2.4-7.46c0-3.24,0.8-5.72,2.4-7.43c1.6-1.71,3.9-2.56,6.89-2.56s5.28,0.86,6.87,2.58
				C1137.91,693.31,1138.7,695.78,1138.7,699.02z M1124.49,699.02c0,2.18,0.41,3.81,1.24,4.91c0.83,1.1,2.06,1.65,3.7,1.65
				c3.29,0,4.94-2.19,4.94-6.57c0-4.39-1.64-6.58-4.92-6.58c-1.64,0-2.88,0.55-3.72,1.66
				C1124.91,695.2,1124.49,696.84,1124.49,699.02z"/>
			<path id="XMLID_35371_" class="st4" d="M1157.43,708.78h-4.06V689.3h11.16v3.38h-7.1v5.02h6.61v3.37h-6.61V708.78z"/>
			<path id="XMLID_35373_" class="st4" d="M1183.04,708.78h-4.06V689.3h11.16v3.38h-7.1v5.02h6.61v3.37h-6.61V708.78z"/>
		</g>
		<g id="XMLID_34744_">
			<path id="XMLID_35347_" class="st5" d="M1197.24,246.83H909.85c-0.78,0-1.42-0.63-1.42-1.42s0.63-1.42,1.42-1.42h287.39
				c0.78,0,1.42,0.63,1.42,1.42S1198.03,246.83,1197.24,246.83z"/>
		</g>
		<g id="XMLID_34687_">
			<path id="XMLID_35346_" class="st5" d="M1250.88,309.75H856.22c-0.78,0-1.42-0.63-1.42-1.42s0.63-1.42,1.42-1.42h394.66
				c0.78,0,1.42,0.63,1.42,1.42S1251.66,309.75,1250.88,309.75z"/>
		</g>
		<g id="XMLID_34683_">
			<path id="XMLID_35318_" class="st2" d="M836.69,284.8c0,2.59-0.94,4.61-2.82,6.06c-1.88,1.45-4.43,2.18-7.66,2.18
				c-3.49,0-6.18-0.45-8.06-1.35v-3.3c1.21,0.51,2.52,0.91,3.95,1.21c1.42,0.3,2.83,0.44,4.23,0.44c2.28,0,4-0.43,5.16-1.3
				c1.15-0.87,1.73-2.07,1.73-3.62c0-1.02-0.2-1.86-0.61-2.51c-0.41-0.65-1.09-1.25-2.06-1.8c-0.96-0.55-2.42-1.17-4.38-1.87
				c-2.74-0.98-4.7-2.14-5.87-3.49c-1.18-1.34-1.76-3.1-1.76-5.26c0-2.27,0.85-4.08,2.56-5.42c1.71-1.34,3.96-2.01,6.77-2.01
				c2.93,0,5.62,0.54,8.08,1.61l-1.07,2.98c-2.43-1.02-4.79-1.53-7.09-1.53c-1.81,0-3.23,0.39-4.25,1.17
				c-1.02,0.78-1.53,1.86-1.53,3.24c0,1.02,0.19,1.86,0.56,2.51c0.38,0.65,1.01,1.25,1.9,1.79c0.89,0.54,2.26,1.15,4.1,1.8
				c3.09,1.1,5.21,2.28,6.38,3.54C836.11,281.14,836.69,282.78,836.69,284.8z"/>
			<path id="XMLID_35320_" class="st2" d="M877.46,271.76c0,2.98-1.02,5.28-3.05,6.88c-2.04,1.6-4.95,2.41-8.73,2.41h-3.47v11.58
				h-3.42v-29.45h7.64C873.78,263.18,877.46,266.04,877.46,271.76z M862.21,278.11h3.08c3.04,0,5.23-0.49,6.59-1.47
				c1.36-0.98,2.04-2.55,2.04-4.71c0-1.95-0.64-3.4-1.91-4.35c-1.28-0.95-3.26-1.43-5.96-1.43h-3.83V278.11z"/>
			<path id="XMLID_35323_" class="st2" d="M916.12,292.63H899.7v-29.45h16.42v3.04h-12.99v9.49h12.21v3.02h-12.21v10.84h12.99
				V292.63z"/>
			<path id="XMLID_35325_" class="st2" d="M951.34,265.82c-3.24,0-5.79,1.08-7.67,3.23c-1.87,2.16-2.81,5.11-2.81,8.85
				c0,3.85,0.9,6.83,2.71,8.93c1.81,2.1,4.38,3.15,7.73,3.15c2.05,0,4.4-0.37,7.03-1.11v3c-2.04,0.77-4.56,1.15-7.55,1.15
				c-4.34,0-7.69-1.32-10.04-3.95c-2.36-2.63-3.54-6.37-3.54-11.22c0-3.04,0.57-5.7,1.7-7.98c1.13-2.28,2.77-4.04,4.92-5.28
				c2.14-1.24,4.66-1.85,7.57-1.85c3.09,0,5.79,0.56,8.1,1.69l-1.45,2.94C955.8,266.34,953.57,265.82,951.34,265.82z"/>
			<path id="XMLID_35327_" class="st2" d="M980.83,292.63v-29.45h3.42v29.45H980.83z"/>
			<path id="XMLID_35329_" class="st2" d="M1026.93,292.63l-3.67-9.37h-11.81l-3.63,9.37h-3.47l11.64-29.57h2.88l11.58,29.57
				H1026.93z M1022.19,280.18l-3.42-9.13c-0.44-1.16-0.9-2.57-1.37-4.25c-0.3,1.29-0.72,2.71-1.27,4.25l-3.46,9.13H1022.19z"/>
			<path id="XMLID_35332_" class="st2" d="M1050.6,292.63v-29.45h3.42v26.35h12.99v3.1H1050.6z"/>
			<path id="XMLID_35334_" class="st2" d="M1128.26,277.63c0,4.85-1.38,8.56-4.14,11.14c-2.76,2.58-6.75,3.87-11.96,3.87h-8.34
				v-29.45h9.25c4.81,0,8.54,1.27,11.2,3.81C1126.93,269.53,1128.26,273.07,1128.26,277.63z M1121.78,277.79
				c0-6.33-2.79-9.49-8.38-9.49h-3.32v19.18h2.68C1118.77,287.48,1121.78,284.25,1121.78,277.79z"/>
			<path id="XMLID_35337_" class="st2" d="M1167.41,292.63h-16.96v-29.45h16.96v5.12h-10.72v6.47h9.97v5.12h-9.97v7.6h10.72V292.63z
				"/>
			<path id="XMLID_35339_" class="st2" d="M1207.66,292.63l-2.14-7.01h-10.74l-2.14,7.01h-6.73l10.4-29.57h7.64l10.44,29.57H1207.66
				z M1204.03,280.39c-1.97-6.35-3.09-9.95-3.33-10.78c-0.25-0.83-0.43-1.49-0.53-1.97c-0.44,1.72-1.71,5.97-3.81,12.75H1204.03z"/>
			<path id="XMLID_35342_" class="st2" d="M1234.17,292.63v-29.45h6.25v24.3h11.95v5.16H1234.17z"/>
			<path id="XMLID_35344_" class="st2" d="M1290.94,284.46c0,2.66-0.96,4.75-2.87,6.29c-1.91,1.53-4.58,2.3-7.99,2.3
				c-3.14,0-5.92-0.59-8.34-1.77v-5.8c1.99,0.89,3.67,1.51,5.05,1.87c1.38,0.36,2.64,0.54,3.78,0.54c1.37,0,2.42-0.26,3.15-0.79
				c0.73-0.52,1.1-1.3,1.1-2.34c0-0.58-0.16-1.09-0.48-1.54c-0.32-0.45-0.8-0.88-1.42-1.3c-0.62-0.42-1.9-1.08-3.82-1.99
				c-1.8-0.85-3.15-1.66-4.05-2.44c-0.9-0.78-1.62-1.69-2.16-2.72c-0.54-1.03-0.81-2.24-0.81-3.63c0-2.61,0.88-4.65,2.65-6.14
				c1.77-1.49,4.21-2.24,7.32-2.24c1.53,0,2.99,0.18,4.38,0.54c1.39,0.36,2.84,0.87,4.36,1.53l-2.01,4.86
				c-1.57-0.64-2.87-1.09-3.9-1.35c-1.03-0.25-2.04-0.38-3.03-0.38c-1.18,0-2.09,0.28-2.72,0.83c-0.63,0.55-0.95,1.27-0.95,2.16
				c0,0.55,0.13,1.03,0.38,1.44c0.25,0.41,0.66,0.81,1.22,1.19c0.56,0.38,1.88,1.07,3.96,2.07c2.75,1.32,4.64,2.64,5.66,3.96
				C1290.43,280.91,1290.94,282.54,1290.94,284.46z"/>
		</g>
		<g id="XMLID_34623_">
			<path id="XMLID_21980_" class="st3" d="M1327.98,335.47c0-1.12,0.91-2.02,2.02-2.02c1.12,0,2.02,0.9,2.02,2.02v3.92
				c0,1.12-0.9,2.02-2.02,2.02c-1.12,0-2.02-0.91-2.02-2.02V335.47L1327.98,335.47z M1324.39,327.83c1.12,0,2.02,0.91,2.02,2.02
				c0,1.11-0.9,2.02-2.02,2.02h-3.92c-1.12,0-2.02-0.91-2.02-2.02c0-1.12,0.91-2.02,2.02-2.02H1324.39L1324.39,327.83z
				 M1339.54,327.83c1.12,0,2.02,0.91,2.02,2.02c0,1.11-0.91,2.02-2.02,2.02h-3.92c-1.12,0-2.02-0.91-2.02-2.02
				c0-1.12,0.91-2.02,2.02-2.02H1339.54L1339.54,327.83z M1327.98,320.31c0-1.12,0.91-2.02,2.02-2.02c1.12,0,2.02,0.91,2.02,2.02
				v3.92c0,1.11-0.9,2.02-2.02,2.02c-1.12,0-2.02-0.9-2.02-2.02V320.31z"/>
		</g>
		<g id="XMLID_34549_">
			<path id="XMLID_21936_" class="st3" d="M760.05,672.89c0-1.12,0.91-2.02,2.02-2.02c1.12,0,2.02,0.91,2.02,2.02v3.92
				c0,1.12-0.91,2.02-2.02,2.02c-1.12,0-2.02-0.9-2.02-2.02V672.89L760.05,672.89z M756.46,665.25c1.12,0,2.02,0.91,2.02,2.02
				c0,1.12-0.91,2.02-2.02,2.02h-3.92c-1.12,0-2.02-0.91-2.02-2.02c0-1.12,0.91-2.02,2.02-2.02H756.46L756.46,665.25z
				 M771.62,665.25c1.12,0,2.02,0.91,2.02,2.02c0,1.12-0.91,2.02-2.02,2.02h-3.92c-1.12,0-2.02-0.91-2.02-2.02
				c0-1.12,0.91-2.02,2.02-2.02H771.62L771.62,665.25z M760.05,657.73c0-1.12,0.91-2.02,2.02-2.02c1.12,0,2.02,0.9,2.02,2.02v3.92
				c0,1.12-0.91,2.02-2.02,2.02c-1.12,0-2.02-0.91-2.02-2.02V657.73z"/>
		</g>
		<g id="XMLID_34541_">
			<g id="XMLID_34545_">
				<path id="XMLID_21932_" class="st6" d="M1304.87,645.64c4.04,0,7.7,1.64,10.34,4.28c2.65,2.65,4.28,6.31,4.28,10.34
					c0,4.04-1.64,7.7-4.28,10.34c-2.65,2.65-6.31,4.28-10.34,4.28c-4.04,0-7.7-1.64-10.34-4.28c-2.65-2.65-4.28-6.3-4.28-10.34
					c0-4.04,1.64-7.7,4.28-10.34C1297.17,647.27,1300.83,645.64,1304.87,645.64L1304.87,645.64z M1311,654.13
					c-1.57-1.57-3.74-2.54-6.14-2.54c-2.4,0-4.57,0.97-6.13,2.54c-1.57,1.57-2.54,3.74-2.54,6.13c0,2.4,0.97,4.57,2.54,6.14
					c1.57,1.57,3.74,2.54,6.13,2.54c2.4,0,4.57-0.97,6.14-2.54c1.57-1.57,2.54-3.74,2.54-6.14
					C1313.54,657.87,1312.58,655.7,1311,654.13z"/>
			</g>
			<g id="XMLID_34542_">
				<path id="XMLID_21930_" class="st3" d="M1304.87,645.64c4.04,0,7.7,1.64,10.34,4.28c2.65,2.65,4.28,6.31,4.28,10.34
					c0,4.04-1.64,7.7-4.28,10.34c-2.65,2.65-6.31,4.28-10.34,4.28c-2.65,0-5.13-0.7-7.28-1.93l2.98-5.15
					c1.27,0.72,2.74,1.14,4.3,1.14c2.4,0,4.57-0.97,6.14-2.54c1.57-1.57,2.54-3.74,2.54-6.14c0-2.39-0.97-4.57-2.54-6.13
					c-1.57-1.57-3.74-2.54-6.14-2.54c-1.55,0-3,0.4-4.26,1.12l-2.98-5.16C1299.76,646.34,1302.23,645.64,1304.87,645.64z"/>
			</g>
		</g>
		<g id="XMLID_34533_">
			<g id="XMLID_34536_">
				<path id="XMLID_21925_" class="st6" d="M743.17,279.07c4.04,0,7.7,1.64,10.34,4.29c2.65,2.65,4.28,6.3,4.28,10.34
					c0,4.04-1.64,7.7-4.28,10.35c-2.65,2.65-6.3,4.28-10.34,4.28c-4.04,0-7.7-1.64-10.35-4.28c-2.65-2.65-4.28-6.31-4.28-10.35
					c0-4.04,1.64-7.69,4.28-10.34C735.48,280.71,739.13,279.07,743.17,279.07L743.17,279.07z M749.31,287.57
					c-1.57-1.57-3.74-2.54-6.14-2.54c-2.4,0-4.57,0.97-6.14,2.54s-2.54,3.74-2.54,6.14c0,2.4,0.97,4.57,2.54,6.14
					c1.57,1.57,3.74,2.54,6.14,2.54c2.4,0,4.57-0.97,6.14-2.54c1.57-1.57,2.54-3.74,2.54-6.14
					C751.85,291.31,750.88,289.14,749.31,287.57z"/>
			</g>
			<g id="XMLID_34534_">
				<path id="XMLID_21923_" class="st3" d="M743.17,279.07c4.04,0,7.7,1.64,10.34,4.29c2.65,2.65,4.28,6.3,4.28,10.34
					c0,4.04-1.64,7.7-4.28,10.35c-2.65,2.65-6.3,4.28-10.34,4.28c-2.65,0-5.13-0.71-7.28-1.94l2.97-5.15
					c1.27,0.72,2.74,1.14,4.3,1.14c2.4,0,4.57-0.97,6.14-2.54c1.57-1.57,2.54-3.74,2.54-6.14c0-2.4-0.97-4.57-2.54-6.14
					c-1.57-1.57-3.74-2.54-6.14-2.54c-1.55,0-3.01,0.41-4.27,1.12l-2.98-5.15C738.07,279.77,740.54,279.07,743.17,279.07z"/>
			</g>
		</g>
		<g id="XMLID_34443_">
			<g id="XMLID_34527_">
				<path id="XMLID_21918_" class="st6" d="M941.54,755.56c4.04,0,7.7,1.64,10.34,4.28c2.65,2.65,4.29,6.3,4.29,10.34
					c0,4.04-1.64,7.7-4.29,10.34c-2.65,2.65-6.3,4.28-10.34,4.28c-4.04,0-7.7-1.64-10.35-4.28c-2.65-2.65-4.28-6.31-4.28-10.34
					c0-4.04,1.64-7.7,4.28-10.34C933.85,757.19,937.5,755.56,941.54,755.56L941.54,755.56z M947.68,764.05
					c-1.57-1.57-3.74-2.54-6.14-2.54c-2.4,0-4.57,0.97-6.14,2.54c-1.57,1.57-2.54,3.74-2.54,6.14c0,2.39,0.97,4.57,2.54,6.13
					c1.57,1.57,3.74,2.54,6.14,2.54c2.4,0,4.57-0.97,6.14-2.54c1.57-1.57,2.54-3.74,2.54-6.13
					C950.22,767.79,949.25,765.62,947.68,764.05z"/>
			</g>
			<g id="XMLID_34526_">
				<path id="XMLID_21916_" class="st3" d="M941.54,755.56c4.04,0,7.7,1.64,10.34,4.28c2.65,2.65,4.29,6.3,4.29,10.34
					c0,4.04-1.64,7.7-4.29,10.34c-2.65,2.65-6.3,4.28-10.34,4.28c-2.65,0-5.13-0.7-7.28-1.93l2.98-5.16
					c1.27,0.73,2.74,1.14,4.3,1.14c2.4,0,4.57-0.97,6.14-2.54c1.57-1.57,2.54-3.74,2.54-6.13c0-2.4-0.97-4.57-2.54-6.14
					c-1.57-1.57-3.74-2.54-6.14-2.54c-1.55,0-3.01,0.4-4.26,1.12l-2.98-5.16C936.44,756.25,938.91,755.56,941.54,755.56z"/>
			</g>
		</g>
		<g id="XMLID_34334_">
			<path id="XMLID_21907_" class="st6" d="M1204.68,791.11c0-1.12,0.91-2.02,2.02-2.02c1.12,0,2.02,0.9,2.02,2.02v3.92
				c0,1.11-0.91,2.02-2.02,2.02c-1.12,0-2.02-0.91-2.02-2.02V791.11L1204.68,791.11z M1201.09,783.47c1.12,0,2.02,0.91,2.02,2.02
				c0,1.12-0.91,2.02-2.02,2.02h-3.92c-1.12,0-2.02-0.91-2.02-2.02c0-1.12,0.91-2.02,2.02-2.02H1201.09L1201.09,783.47z
				 M1216.24,783.47c1.12,0,2.02,0.91,2.02,2.02c0,1.12-0.91,2.02-2.02,2.02h-3.92c-1.12,0-2.02-0.91-2.02-2.02
				c0-1.12,0.91-2.02,2.02-2.02H1216.24L1216.24,783.47z M1204.68,775.95c0-1.11,0.91-2.02,2.02-2.02c1.12,0,2.02,0.91,2.02,2.02
				v3.92c0,1.12-0.91,2.02-2.02,2.02c-1.12,0-2.02-0.91-2.02-2.02V775.95z"/>
		</g>
	</g>
</g>
</svg>
