<svg width="61" height="34" viewBox="0 0 61 34" fill="none" xmlns="http://www.w3.org/2000/svg">
<path d="M24.64 17.04L20.06 21.62C20.45 22.08 20.64 22.66 20.64 23.31V23.4C20.64 25.34 19.03 26.43 16.24 26.43H15.24L7.85999 33.81H17.27C25.17 33.81 29.8 30.36 29.8 24.68V24.59C29.8 20.65 27.83 18.41 24.64 17.04ZM9.14001 20.33H14.24L27.98 6.59003C27.63 5.45003 27.02 4.49 26.21 3.69C24.27 1.75 21.34 0.710022 17.18 0.710022H0.200012V33.81H0.76001L9.13 25.44V20.33H9.14001ZM9.14001 8.09003H15.1C17.84 8.09003 19.26 9.12999 19.26 10.93V11.02C19.26 12.96 17.7 13.91 14.91 13.91H9.14001V8.09003Z" fill="white"/>
<path d="M60.5 8.75V0.710022H40.97L34.02 7.65997V33.81H43.1899V21.99H58.85V14.38H43.1899V8.75H60.5Z" fill="white"/>
</svg>
